<?xml version="1.0" standalone="no"?>
<!DOCTYPE svg PUBLIC "-//W3C//DTD SVG 20010904//EN"
 "http://www.w3.org/TR/2001/REC-SVG-20010904/DTD/svg10.dtd">
<svg version="1.0" xmlns="http://www.w3.org/2000/svg"
 width="231.000000pt" height="231.000000pt" viewBox="0 0 231.000000 231.000000"
 preserveAspectRatio="xMidYMid meet">
<metadata>
Created by potrace 1.14, written by Peter Selinger 2001-2017
</metadata>
<g transform="translate(0.000000,231.000000) scale(0.100000,-0.100000)"
fill="#000000" stroke="none">
<path d="M0 2079 l0 -232 66 89 c84 113 184 234 248 302 28 29 53 58 54 63 2
5 -72 9 -182 9 l-186 0 0 -231z"/>
<path d="M374 2258 c-72 -75 -187 -214 -288 -348 l-86 -114 0 -898 0 -898 426
0 426 0 107 56 c99 51 159 91 150 97 -220 160 -438 365 -582 547 -303 386
-449 780 -393 1060 10 47 30 108 44 135 56 104 160 180 285 207 88 18 248 5
353 -30 108 -36 219 -86 288 -130 l49 -32 51 31 c245 145 504 200 688 144 129
-38 217 -128 264 -267 43 -127 31 -328 -31 -507 -100 -289 -318 -613 -581
-863 -83 -79 -269 -233 -321 -266 -24 -15 -43 -29 -43 -32 0 -5 50 -35 179
-107 l76 -43 438 0 437 0 0 891 0 891 -77 107 c-84 114 -200 258 -271 333 -25
26 -51 56 -59 68 -14 20 -21 20 -746 20 l-733 0 -50 -52z"/>
<path d="M2025 2200 c52 -61 136 -165 186 -233 50 -67 93 -124 95 -126 2 -2 4
102 4 232 l0 237 -190 0 -191 0 96 -110z"/>
<path d="M460 2073 c-55 -11 -150 -63 -187 -101 -105 -109 -141 -302 -97 -527
14 -70 85 -265 96 -265 4 0 8 -8 8 -17 1 -45 153 -293 268 -438 155 -194 378
-406 538 -513 l65 -43 81 58 c242 173 487 426 648 668 172 258 270 527 270
744 0 146 -36 248 -116 328 -121 120 -330 143 -569 61 -88 -29 -223 -94 -261
-124 -18 -14 -18 -15 6 -32 22 -15 111 -90 204 -172 46 -41 159 -179 212 -260
97 -147 146 -263 165 -393 49 -341 -208 -485 -552 -310 l-89 46 -69 -37 c-99
-52 -193 -78 -281 -79 -100 -1 -165 21 -217 76 -59 61 -78 121 -77 237 2 148
60 297 188 485 68 100 277 316 368 380 32 22 56 45 55 50 -6 18 -207 114 -306
146 -80 26 -115 32 -211 34 -63 2 -126 1 -140 -2z"/>
<path d="M1070 1813 c-101 -76 -253 -230 -328 -332 -156 -213 -236 -452 -199
-595 34 -128 110 -186 246 -186 90 0 149 15 254 63 l78 36 -77 67 c-89 79
-164 166 -217 255 -52 88 -87 192 -87 256 0 48 23 119 48 146 63 69 213 67
337 -5 29 -17 32 -17 60 0 85 51 219 71 276 42 72 -37 117 -128 104 -207 -17
-96 -62 -199 -129 -294 -44 -63 -160 -182 -225 -229 l-31 -23 33 -22 c17 -12
62 -34 100 -49 207 -82 370 -45 434 99 13 30 17 64 16 140 -1 85 -6 114 -33
190 -65 182 -157 320 -330 496 -112 113 -225 209 -247 209 -4 0 -42 -26 -83
-57z"/>
<path d="M885 1541 c-76 -19 -110 -68 -109 -157 1 -71 38 -184 83 -252 l28
-43 6 54 c8 66 36 131 84 194 36 49 122 133 136 133 4 0 7 4 7 9 0 13 -118 59
-165 65 -22 2 -53 1 -70 -3z"/>
<path d="M1345 1542 c-35 -4 -144 -42 -150 -52 -3 -4 28 -41 68 -82 92 -93
136 -171 144 -256 7 -73 13 -71 60 18 82 155 81 308 -1 352 -27 15 -83 24
-121 20z"/>
<path d="M1093 1415 c-47 -44 -48 -44 -20 -45 15 0 40 -6 55 -14 23 -12 31
-12 52 0 14 7 35 13 48 14 12 0 22 2 22 5 0 12 -86 85 -100 85 -5 0 -30 -20
-57 -45z"/>
<path d="M1030 1325 c-32 -38 -3 -118 70 -198 l47 -51 34 28 c61 52 109 134
109 187 0 10 -11 26 -25 35 -24 15 -28 15 -71 -1 -41 -16 -47 -16 -78 -1 -43
20 -70 20 -86 1z"/>
<path d="M950 1232 c-15 -30 -23 -68 -24 -104 -1 -48 3 -59 23 -77 28 -25 86
-28 135 -7 l34 14 -44 46 c-47 49 -84 113 -84 145 0 38 -18 31 -40 -17z"/>
<path d="M1316 1248 c-8 -43 -61 -122 -103 -157 l-34 -28 34 -17 c19 -9 55
-16 80 -16 83 0 109 71 66 184 -25 68 -35 75 -43 34z"/>
<path d="M1115 1023 c-19 -11 -54 -17 -96 -17 l-67 -1 36 -40 c44 -50 149
-135 165 -135 15 1 165 128 183 155 13 19 11 20 -41 17 -38 -3 -67 2 -100 17
-26 12 -48 21 -49 21 0 -1 -14 -8 -31 -17z"/>
<path d="M1090 96 c-30 -18 -80 -47 -110 -64 l-55 -32 220 0 220 0 -75 43
c-41 23 -91 52 -110 64 l-35 22 -55 -33z"/>
</g>
</svg>
